<svg width="24" height="24" viewBox="0 0 24 24" fill="none" xmlns="http://www.w3.org/2000/svg">
<path d="M6.27247 17.7276C5.06332 16.5184 5.06332 14.5527 6.27247 13.3435L9.1009 10.5151L7.75739 9.17157L4.92897 12C3.99128 12.9377 3.4645 14.2095 3.4645 15.5355C3.4645 16.8616 3.99128 18.1334 4.92897 19.0711C5.86665 20.0087 7.13842 20.5355 8.4645 20.5355C9.79058 20.5355 11.0624 20.0087 12 19.0711L14.8285 16.2426L13.485 14.8991L10.6565 17.7276C9.44738 18.9367 7.48162 18.9367 6.27247 17.7276ZM9.87871 15.5355L15.5356 9.87868L14.1214 8.46447L8.4645 14.1213L9.87871 15.5355ZM12 4.92893L9.17161 7.75736L10.5151 9.10086L13.3435 6.27243C14.5527 5.06328 16.5184 5.06328 17.7276 6.27243C18.9368 7.48159 18.9368 9.44735 17.7276 10.6565L14.8992 13.4849L16.2427 14.8284L19.0711 12C20.0088 11.0623 20.5356 9.79055 20.5356 8.46447C20.5356 7.13838 20.0088 5.86661 19.0711 4.92893C18.1334 3.99125 16.8616 3.46447 15.5356 3.46447C14.2095 3.46447 12.9377 3.99125 12 4.92893Z" fill="black"/>
</svg>
